<?xml version="1.0" standalone="no"?>
<!DOCTYPE svg PUBLIC "-//W3C//DTD SVG 20010904//EN"
 "http://www.w3.org/TR/2001/REC-SVG-20010904/DTD/svg10.dtd">
<svg version="1.0" xmlns="http://www.w3.org/2000/svg"
 width="512.000000pt" height="512.000000pt" viewBox="0 0 512.000000 512.000000"
 preserveAspectRatio="xMidYMid meet">

<g transform="translate(0.000000,512.000000) scale(0.100000,-0.100000)"
fill="#000000" stroke="none">
<path d="M524 5101 c-23 -10 -52 -34 -65 -52 -21 -30 -24 -46 -27 -151 l-4
-118 -136 0 c-76 0 -153 -5 -172 -10 -41 -11 -94 -61 -109 -103 -7 -18 -11
-163 -11 -405 0 -372 1 -378 23 -416 45 -80 91 -95 280 -96 l128 0 -3 -82 -3
-83 -160 -5 c-149 -5 -162 -7 -194 -29 -69 -49 -71 -62 -71 -479 0 -405 1
-412 56 -464 45 -42 75 -48 230 -48 l144 0 2 -1227 3 -1228 24 -34 c45 -62 80
-71 309 -71 221 0 246 5 294 56 15 16 32 42 37 57 8 19 11 408 11 1238 l0
1209 1450 0 1450 0 0 -1209 c0 -830 3 -1219 11 -1238 5 -15 22 -41 37 -57 48
-51 73 -56 294 -56 229 0 264 9 309 71 l24 34 3 1227 2 1228 144 0 c155 0 185
6 230 48 55 52 56 59 56 464 0 417 -2 430 -71 479 -32 22 -45 24 -194 29
l-160 5 -3 83 -3 82 128 0 c193 1 238 17 281 100 22 44 22 50 22 416 0 239 -4
383 -11 401 -15 42 -68 92 -109 103 -19 5 -96 10 -172 10 l-136 0 -4 118 c-3
105 -6 121 -27 151 -45 62 -80 71 -309 71 -221 0 -246 -5 -294 -56 -40 -43
-48 -75 -48 -185 l0 -99 -1450 0 -1450 0 0 100 c0 112 -11 150 -56 192 -47 44
-73 48 -287 48 -175 0 -207 -3 -243 -19z m416 -236 l0 -85 -170 0 -170 0 0 85
0 85 170 0 170 0 0 -85z m3410 0 l0 -85 -85 0 -85 0 0 85 0 85 85 0 85 0 0
-85z m-3620 -258 c0 -1 -126 -128 -280 -282 l-280 -280 0 283 0 282 280 0
c154 0 280 -1 280 -3z m855 -337 l-340 -340 -175 0 -175 0 340 340 340 340
175 0 175 0 -340 -340z m1200 0 l-340 -340 -180 0 -180 0 340 340 340 340 180
0 180 0 -340 -340z m1190 0 l-340 -340 -175 0 -175 0 340 340 340 340 175 0
175 0 -340 -340z m975 -105 l0 -235 -237 0 -238 0 235 235 c129 129 236 235
237 235 2 0 3 -106 3 -235z m-4010 -495 l0 -80 -170 0 -170 0 0 80 0 80 170 0
170 0 0 -80z m3070 -5 l0 -85 -1450 0 -1450 0 0 85 0 85 1450 0 1450 0 0 -85z
m340 5 l0 -80 -85 0 -85 0 0 80 0 80 85 0 85 0 0 -80z m-3630 -263 c0 -1 -124
-126 -275 -277 l-275 -275 0 278 0 277 275 0 c151 0 275 -1 275 -3z m865 -337
l-340 -340 -180 0 -180 0 340 340 340 340 180 0 180 0 -340 -340z m1190 0
l-340 -340 -175 0 -175 0 340 340 340 340 175 0 175 0 -340 -340z m1200 0
l-340 -340 -180 0 -180 0 340 340 340 340 180 0 180 0 -340 -340z m975 -105
l0 -235 -237 0 -238 0 235 235 c129 129 236 235 237 235 2 0 3 -106 3 -235z
m-4010 -1600 l0 -1195 -170 0 -170 0 0 1195 0 1195 170 0 170 0 0 -1195z
m3410 0 l0 -1195 -85 0 -85 0 0 1195 0 1195 85 0 85 0 0 -1195z"/>
<path d="M2438 2381 c-79 -17 -114 -62 -132 -169 l-11 -63 -85 -35 c-47 -20
-97 -40 -111 -46 -22 -10 -33 -6 -86 30 -109 74 -162 67 -275 -37 -92 -85
-128 -142 -128 -202 0 -40 7 -58 45 -114 l44 -67 -23 -46 c-13 -26 -33 -75
-46 -109 -24 -66 -24 -66 -113 -78 -58 -9 -104 -39 -128 -85 -28 -51 -28 -279
0 -330 23 -45 70 -77 124 -85 97 -14 93 -12 117 -78 12 -34 33 -83 46 -109
l24 -48 -45 -65 c-79 -115 -60 -184 87 -320 109 -100 168 -108 271 -35 30 22
59 40 63 40 4 0 32 -12 63 -26 31 -15 78 -34 105 -44 l50 -17 13 -67 c15 -82
38 -124 83 -151 31 -17 52 -20 170 -20 118 0 139 3 170 20 45 27 72 74 85 153
l10 65 50 17 c28 10 75 29 106 44 31 14 59 26 63 26 4 0 33 -18 63 -40 103
-73 162 -65 271 35 147 136 165 204 87 320 l-44 67 23 46 c13 26 33 75 46 109
l22 62 70 12 c83 15 124 40 150 91 28 54 28 272 0 326 -24 48 -69 78 -129 87
-89 12 -89 12 -113 78 -13 34 -33 83 -46 109 l-24 48 45 65 c38 56 45 74 45
114 0 60 -35 115 -127 202 -112 104 -166 111 -276 37 -53 -36 -64 -40 -86 -30
-14 6 -64 26 -111 46 l-85 35 -12 66 c-25 138 -63 166 -226 171 -62 2 -128 -1
-149 -5z m105 -320 c28 -6 94 -32 146 -58 53 -25 112 -47 131 -48 19 -1 76
-22 126 -48 50 -26 97 -47 105 -47 8 0 32 11 54 24 29 18 43 22 52 14 25 -20
13 -60 -41 -137 l-54 -77 42 -84 c23 -47 51 -115 61 -152 l19 -66 81 -13 c67
-10 85 -17 112 -43 33 -31 33 -31 33 -132 0 -99 0 -101 -30 -130 -25 -23 -48
-32 -112 -44 l-81 -15 -27 -80 c-14 -44 -43 -111 -63 -149 -20 -38 -33 -74
-30 -80 4 -6 28 -41 55 -77 48 -67 59 -107 35 -127 -9 -8 -23 -4 -52 14 -22
13 -46 24 -54 24 -8 0 -59 -23 -113 -51 -63 -31 -109 -49 -126 -47 -16 1 -57
-13 -102 -36 -41 -22 -106 -49 -145 -61 -69 -21 -69 -22 -80 -66 l-12 -44 -7
58 c-10 78 -38 110 -111 126 -31 7 -105 37 -165 67 -60 30 -115 54 -124 54 -8
0 -50 -24 -94 -54 l-79 -54 -53 53 c-36 36 -50 57 -44 67 4 7 27 40 51 73 25
34 43 70 43 85 0 15 -22 70 -49 124 -28 53 -55 122 -62 153 -19 85 -45 109
-132 123 -115 18 -107 11 -107 95 0 83 -4 79 90 90 107 13 121 27 155 148 9
32 36 97 60 143 25 47 45 98 45 113 0 16 -17 51 -43 86 -24 33 -47 66 -51 73
-6 10 8 31 44 67 l53 53 79 -54 c44 -30 86 -54 95 -54 9 0 55 20 102 44 48 24
118 54 156 66 121 37 128 44 142 142 l7 53 10 -46 c9 -45 10 -46 59 -58z"/>
<path d="M2474 1791 c-237 -38 -435 -216 -494 -446 -81 -318 104 -637 425
-731 80 -23 230 -23 310 0 321 94 506 413 425 731 -64 250 -284 431 -545 449
-38 2 -93 1 -121 -3z"/>
</g>
</svg>
