<?xml version="1.0" standalone="no"?>
<!DOCTYPE svg PUBLIC "-//W3C//DTD SVG 20010904//EN"
 "http://www.w3.org/TR/2001/REC-SVG-20010904/DTD/svg10.dtd">
<svg version="1.0" xmlns="http://www.w3.org/2000/svg"
 width="1024.000000pt" height="1024.000000pt" viewBox="0 0 1024.000000 1024.000000"
 preserveAspectRatio="xMidYMid meet">

<g transform="translate(0.000000,1024.000000) scale(0.100000,-0.100000)"
fill="#000000" stroke="none">
<path d="M4760 10209 c-769 -43 -1620 -308 -2286 -709 -713 -431 -1316 -1034
-1736 -1738 -101 -170 -297 -571 -371 -762 -348 -885 -431 -1926 -231 -2884
147 -703 466 -1408 901 -1992 151 -203 289 -360 493 -565 264 -265 461 -426
790 -646 712 -475 1532 -759 2405 -833 156 -13 686 -13 840 0 736 64 1496 308
2120 683 401 240 681 455 993 761 322 316 563 621 794 1001 368 608 614 1305
697 1975 111 895 -11 1832 -340 2606 -374 881 -897 1551 -1664 2131 -383 289
-883 546 -1385 713 -651 216 -1301 299 -2020 259z m608 -3209 c126 -217 307
-528 402 -690 95 -162 229 -392 298 -510 69 -118 180 -307 247 -420 67 -113
199 -335 292 -495 371 -635 1178 -2000 1203 -2036 11 -15 16 -29 13 -33 -4 -3
-282 -6 -619 -6 l-612 0 -685 1143 c-572 954 -1409 2353 -1424 2379 -3 6 602
1030 630 1066 6 7 13 9 17 5 4 -4 111 -186 238 -403z m-1408 -265 c0 -3 -88
-154 -196 -335 l-197 -330 -736 0 c-621 0 -740 -2 -757 -14 -16 -12 -20 -31
-25 -133 -7 -135 -2 -160 32 -185 23 -17 51 -18 399 -18 406 0 450 -5 533 -53
53 -31 88 -71 125 -141 l27 -51 3 -344 c3 -381 2 -390 -61 -501 -27 -47 -32
-52 -37 -33 -9 37 -390 491 -426 508 -27 13 -91 15 -416 15 -422 0 -450 3
-559 61 -115 62 -214 197 -239 328 -16 86 -13 762 4 842 37 172 159 309 324
366 l67 22 1068 1 c587 0 1067 -2 1067 -5z m3280 -553 c0 -514 1 -554 20 -626
36 -143 116 -254 241 -336 86 -56 156 -75 274 -75 114 0 154 14 211 73 63 65
65 85 62 596 l-3 457 130 -138 c72 -76 217 -228 323 -338 l194 -200 -5 -165
c-6 -191 -16 -239 -86 -385 -121 -255 -346 -431 -615 -482 -117 -22 -319 -13
-449 21 -210 54 -389 157 -547 316 -159 159 -266 341 -316 537 l-25 98 -3 598
-4 597 299 0 299 0 0 -548z m1450 207 l0 -341 -340 333 c-187 183 -340 337
-340 341 0 4 153 8 340 8 l340 0 0 -341z m-4088 -914 l307 -515 -86 -143 c-47
-78 -201 -338 -342 -577 -141 -239 -389 -659 -551 -932 l-295 -498 -618 0
c-340 0 -616 3 -614 8 2 4 140 237 307 517 167 281 449 758 627 1060 421 715
947 1594 953 1595 3 0 143 -232 312 -515z m-1976 -747 c33 -35 113 -124 179
-198 66 -74 123 -136 128 -138 18 -9 2 -37 -59 -102 -42 -44 -86 -79 -122 -97
l-57 -28 -632 -3 -633 -3 0 316 0 315 568 0 569 0 59 -62z"/>
</g>
</svg>
